<svg version="1.1" xmlns="http://www.w3.org/2000/svg" xmlns:xlink="http://www.w3.org/1999/xlink" x="0px" y="0px"
	 viewBox="0 0 500 500" style="enable-background:new 0 0 500 500;" xml:space="preserve">
<g id="Background_Complete">
	<g>
		<rect y="382.398" style="fill:#EBEBEB;" width="500" height="0.25"/>
		<rect x="416.779" y="394.175" style="fill:#EBEBEB;" width="33.122" height="0.25"/>
		<rect x="352.415" y="396.888" style="fill:#EBEBEB;" width="8.693" height="0.25"/>
		<rect x="238.237" y="386.694" style="fill:#EBEBEB;" width="146.541" height="0.25"/>
		<rect x="52.459" y="386.569" style="fill:#EBEBEB;" width="15.208" height="0.25"/>
		<rect x="76.57" y="386.569" style="fill:#EBEBEB;" width="34.319" height="0.25"/>
		<rect x="131.471" y="390.791" style="fill:#EBEBEB;" width="44.195" height="0.25"/>
		<path style="fill:#EBEBEB;" d="M238.446,337.8H45.347c-3.147,0-5.708-2.561-5.708-5.708V60.66c0-3.147,2.561-5.708,5.708-5.708
			h193.099c3.146,0,5.707,2.561,5.707,5.708v271.432C244.153,335.239,241.592,337.8,238.446,337.8z M45.347,55.203
			c-3.01,0-5.458,2.448-5.458,5.458v271.432c0,3.01,2.448,5.458,5.458,5.458h193.099c3.009,0,5.457-2.448,5.457-5.458V60.66
			c0-3.009-2.448-5.458-5.457-5.458H45.347z"/>
		<path style="fill:#EBEBEB;" d="M453.31,337.8H260.212c-3.147,0-5.707-2.561-5.707-5.708V60.66c0-3.147,2.561-5.708,5.707-5.708
			H453.31c3.148,0,5.708,2.561,5.708,5.708v271.432C459.019,335.239,456.458,337.8,453.31,337.8z M260.212,55.203
			c-3.009,0-5.457,2.448-5.457,5.458v271.432c0,3.01,2.448,5.458,5.457,5.458H453.31c3.01,0,5.458-2.448,5.458-5.458V60.66
			c0-3.009-2.448-5.458-5.458-5.458H260.212z"/>
	</g>
	<g>
		<g>
			<rect x="170.429" y="83.347" style="fill:#EBEBEB;" width="257.172" height="177.776"/>
			<rect x="172.852" y="83.347" style="fill:#F5F5F5;" width="259.933" height="177.776"/>
			<rect x="170.429" y="261.123" style="fill:#EBEBEB;" width="241.932" height="9.633"/>
			<rect x="195.872" y="261.123" style="fill:#F0F0F0;" width="244.53" height="9.633"/>
			
				<rect x="221.188" y="49.526" transform="matrix(-1.836970e-16 1 -1 -1.836970e-16 475.0536 -130.5833)" style="fill:#FAFAFA;" width="163.261" height="245.418"/>
			<polygon style="fill:#FFFFFF;" points="225.137,253.865 287.103,90.605 316.355,90.605 254.389,253.865 			"/>
			<path style="fill:#F0F0F0;" d="M183.469,213.439c-0.287,0-0.518-0.232-0.518-0.518V95.327c0-0.286,0.232-0.518,0.518-0.518
				s0.518,0.232,0.518,0.518V212.92C183.988,213.206,183.756,213.439,183.469,213.439z"/>
			<polygon style="fill:#FFFFFF;" points="260.673,253.865 322.638,90.605 334.042,90.605 272.077,253.865 			"/>
			<polygon style="fill:#FFFFFF;" points="331.532,253.865 393.498,90.605 404.902,90.605 342.936,253.865 			"/>
			
				<rect x="343.436" y="171.774" transform="matrix(-1.836970e-16 1 -1 -1.836970e-16 597.3018 -252.8316)" style="fill:#EBEBEB;" width="163.261" height="0.922"/>
			<g style="opacity:0.7;">
				<polygon style="fill:#EBEBEB;" points="434.502,97.188 177.33,97.188 176.662,93.426 433.834,93.426 				"/>
				<polygon style="fill:#EBEBEB;" points="434.502,101.23 177.33,101.23 176.662,97.467 433.834,97.467 				"/>
				<polygon style="fill:#EBEBEB;" points="434.502,105.272 177.33,105.272 176.662,101.509 433.834,101.509 				"/>
				<polygon style="fill:#EBEBEB;" points="434.502,109.313 177.33,109.313 176.662,105.551 433.834,105.551 				"/>
				<polygon style="fill:#EBEBEB;" points="434.502,113.355 177.33,113.355 176.662,109.592 433.834,109.592 				"/>
				<polygon style="fill:#EBEBEB;" points="434.502,117.397 177.33,117.397 176.662,113.634 433.834,113.634 				"/>
				<polygon style="fill:#EBEBEB;" points="434.502,121.438 177.33,121.438 176.662,117.676 433.834,117.676 				"/>
				<polygon style="fill:#EBEBEB;" points="434.502,125.48 177.33,125.48 176.662,121.717 433.834,121.717 				"/>
				<polygon style="fill:#EBEBEB;" points="434.502,129.521 177.33,129.521 176.662,125.759 433.834,125.759 				"/>
				<polygon style="fill:#EBEBEB;" points="434.502,133.563 177.33,133.563 176.662,129.801 433.834,129.801 				"/>
				<polygon style="fill:#EBEBEB;" points="434.502,137.605 177.33,137.605 176.662,133.842 433.834,133.842 				"/>
				<polygon style="fill:#EBEBEB;" points="434.502,141.646 177.33,141.646 176.662,137.884 433.834,137.884 				"/>
				<polygon style="fill:#EBEBEB;" points="434.502,145.688 177.33,145.688 176.662,141.926 433.834,141.926 				"/>
				<polygon style="fill:#EBEBEB;" points="434.502,149.73 177.33,149.73 176.662,145.967 433.834,145.967 				"/>
				<polygon style="fill:#EBEBEB;" points="434.502,153.771 177.33,153.771 176.662,150.009 433.834,150.009 				"/>
				<polygon style="fill:#EBEBEB;" points="434.502,157.813 177.33,157.813 176.662,154.051 433.834,154.051 				"/>
				<polygon style="fill:#EBEBEB;" points="434.502,161.855 177.33,161.855 176.662,158.092 433.834,158.092 				"/>
				<polygon style="fill:#EBEBEB;" points="434.502,165.896 177.33,165.896 176.662,162.134 433.834,162.134 				"/>
				<polygon style="fill:#EBEBEB;" points="434.502,169.938 177.33,169.938 176.662,166.175 433.834,166.175 				"/>
				<polygon style="fill:#EBEBEB;" points="434.502,173.98 177.33,173.98 176.662,170.217 433.834,170.217 				"/>
				<polygon style="fill:#EBEBEB;" points="434.502,178.021 177.33,178.021 176.662,174.259 433.834,174.259 				"/>
				<polygon style="fill:#EBEBEB;" points="434.502,182.063 177.33,182.063 176.662,178.3 433.834,178.3 				"/>
				<polygon style="fill:#EBEBEB;" points="434.502,186.105 177.33,186.105 176.662,182.342 433.834,182.342 				"/>
				<polygon style="fill:#EBEBEB;" points="434.502,190.146 177.33,190.146 176.662,186.384 433.834,186.384 				"/>
			</g>
		</g>
		<path style="fill:#EBEBEB;" d="M67.667,264.181c0,11.149,11.32,20.187,25.284,20.187c13.964,0,25.284-9.038,25.284-20.187H67.667z
			"/>
		<g>
			<g>
				<rect x="52.459" y="284.368" style="fill:#F0F0F0;" width="18.104" height="92.189"/>
				<rect x="55.935" y="376.557" style="fill:#F0F0F0;" width="89.28" height="5.841"/>
				
					<rect x="70.563" y="284.368" transform="matrix(-1 -1.224647e-16 1.224647e-16 -1 219.2544 660.9252)" style="fill:#F5F5F5;" width="78.129" height="92.189"/>
				
					<rect x="77.68" y="295.715" transform="matrix(-1 -1.224647e-16 1.224647e-16 -1 219.2544 621.665)" style="fill:#F0F0F0;" width="63.893" height="30.235"/>
				
					<rect x="77.68" y="334.975" transform="matrix(-1 -1.224647e-16 1.224647e-16 -1 219.2544 700.184)" style="fill:#F0F0F0;" width="63.893" height="30.235"/>
				<path style="fill:#F5F5F5;" d="M116.91,312.906h-14.565c-0.911,0-1.656-0.745-1.656-1.656v-0.834
					c0-0.911,0.745-1.656,1.656-1.656h14.565c0.911,0,1.656,0.745,1.656,1.656v0.834C118.566,312.16,117.821,312.906,116.91,312.906
					z"/>
				<path style="fill:#F5F5F5;" d="M116.91,352.165h-14.565c-0.911,0-1.656-0.745-1.656-1.656v-0.834
					c0-0.911,0.745-1.656,1.656-1.656h14.565c0.911,0,1.656,0.745,1.656,1.656v0.834C118.566,351.42,117.821,352.165,116.91,352.165
					z"/>
			</g>
		</g>
		<g>
			<g>
				<rect x="238.714" y="306.667" style="fill:#F0F0F0;" width="14.878" height="71.219"/>
				<rect x="241.57" y="377.886" style="fill:#F0F0F0;" width="163.923" height="4.513"/>
				
					<rect x="253.592" y="306.667" transform="matrix(-1 -1.224647e-16 1.224647e-16 -1 661.9422 684.5525)" style="fill:#F5F5F5;" width="154.758" height="71.219"/>
				
					<rect x="259.442" y="315.433" transform="matrix(-1 -1.224647e-16 1.224647e-16 -1 661.9422 654.2226)" style="fill:#F0F0F0;" width="143.059" height="23.357"/>
				
					<rect x="259.442" y="345.762" transform="matrix(-1 -1.224647e-16 1.224647e-16 -1 661.9422 714.8813)" style="fill:#F0F0F0;" width="143.059" height="23.357"/>
				<path style="fill:#F5F5F5;" d="M382.272,328.713H279.67c-0.726,0-1.319-0.594-1.319-1.32v-0.564c0-0.726,0.594-1.32,1.319-1.32
					h102.602c0.726,0,1.319,0.594,1.319,1.32v0.564C383.591,328.119,382.998,328.713,382.272,328.713z"/>
				<path style="fill:#F5F5F5;" d="M382.272,359.042H279.67c-0.726,0-1.319-0.594-1.319-1.32v-0.564
					c0-0.726,0.594-1.319,1.319-1.319h102.602c0.726,0,1.319,0.594,1.319,1.319v0.564
					C383.591,358.448,382.998,359.042,382.272,359.042z"/>
			</g>
		</g>
		<g>
			<rect x="62.952" y="94.56" style="fill:#E6E6E6;" width="69.867" height="142.213"/>
			<rect x="64.463" y="94.56" style="fill:#F5F5F5;" width="73.962" height="142.213"/>
			
				<rect x="41.1" y="139.447" transform="matrix(-1.836970e-16 1 -1 -1.836970e-16 267.11 64.2221)" style="fill:#FFFFFF;" width="120.688" height="52.437"/>
		</g>
		<circle style="fill:#F5F5F5;" cx="217.521" cy="351.242" r="31.157"/>
	</g>
</g>
<g id="Background_Simple" style="display:none;">
	<g style="display:inline;">
		<path style="fill:#407BFF;" d="M287.069,192.226c-73.72-14.48-125.387-169.075-214.654-75.901
			c-63.33,66.103,7.062,210.481,96.577,186.341c54.181-14.611,45.361-15.031,97.587,9.522
			c52.925,24.883,77.902,30.797,120.606-23.54c22.099-28.119,52.01-88.163,20.556-119.182
			C368.402,130.673,332.106,201.072,287.069,192.226z"/>
		<path style="opacity:0.9;fill:#FFFFFF;" d="M287.069,192.226c-73.72-14.48-125.387-169.075-214.654-75.901
			c-63.33,66.103,7.062,210.481,96.577,186.341c54.181-14.611,45.361-15.031,97.587,9.522
			c52.925,24.883,77.902,30.797,120.606-23.54c22.099-28.119,52.01-88.163,20.556-119.182
			C368.402,130.673,332.106,201.072,287.069,192.226z"/>
	</g>
</g>
<g id="Shadow_1_">
	<ellipse id="_x3C_Path_x3E__1_" style="fill:#F5F5F5;" cx="250" cy="416.238" rx="193.889" ry="11.323"/>
</g>
<g id="Photo">
	<g>
		<g>
			<polygon style="opacity:0.2;fill:#407BFF;" points="250.395,238.871 88.343,257.811 56.743,97.24 218.794,78.299 			"/>
			<polygon style="opacity:0.7;fill:#407BFF;" points="240.972,231.979 94.691,249.076 66.166,104.132 212.447,87.034 			"/>
			
				<ellipse transform="matrix(0.6048 -0.7964 0.7964 0.6048 -62.882 147.4532)" style="opacity:0.8;fill:#FFFFFF;" cx="117.131" cy="137.086" rx="19.602" ry="21.194"/>
			<polygon style="opacity:0.2;" points="240.972,231.979 174.356,183.259 153.034,212.6 132.246,197.398 94.692,249.076 
				129.556,244.907 129.244,245.338 			"/>
		</g>
	</g>
</g>
<g id="Phone">
	<g>
		<g>
			
				<rect x="147.829" y="285.149" transform="matrix(0.997 -0.0779 0.0779 0.997 -22.3039 12.4395)" style="fill:#263238;" width="1" height="14.035"/>
			
				<rect x="149.021" y="304.314" transform="matrix(0.997 -0.0779 0.0779 0.997 -23.4852 12.5771)" style="fill:#263238;" width="1" height="6.201"/>
			<path style="fill:#263238;" d="M175.254,411.212h115.088c8.038,0,14.102-6.577,13.474-14.615l-21.527-275.563
				c-0.628-8.038-7.719-14.615-15.757-14.615H151.443c-8.038,0-14.102,6.577-13.474,14.615l21.527,275.563
				C160.125,404.635,167.215,411.212,175.254,411.212z"/>
			<path style="fill:#263238;" d="M144.517,194.842h2.218c1.436,0,2.52-1.175,2.407-2.611l-2.487-31.832
				c-0.112-1.436-1.379-2.611-2.815-2.611h-2.218c-1.436,0-2.52,1.175-2.407,2.611l2.487,31.832
				C141.814,193.667,143.081,194.842,144.517,194.842z"/>
			<path style="fill:#263238;" d="M146.335,226.434h3.518c1.079,0,1.892-0.883,1.808-1.961l-1.327-16.982
				c-0.084-1.079-1.036-1.961-2.115-1.961h-3.518c-1.079,0-1.892,0.883-1.808,1.961l1.327,16.982
				C144.305,225.551,145.257,226.434,146.335,226.434z"/>
			<path style="fill:#407BFF;" d="M180.26,411.212h115.088c8.039,0,14.102-6.577,13.474-14.615l-21.527-275.563
				c-0.628-8.038-7.719-14.615-15.757-14.615H156.449c-8.038,0-14.102,6.577-13.474,14.615l21.527,275.563
				C165.13,404.635,172.221,411.212,180.26,411.212z"/>
			<path style="opacity:0.2;" d="M230.209,397.254c0.281,3.592,3.42,6.504,7.013,6.504c3.592,0,6.277-2.912,5.996-6.504
				c-0.281-3.592-3.42-6.504-7.013-6.504S229.928,393.661,230.209,397.254z"/>
			<polygon style="opacity:0.8;fill:#FFFFFF;" points="163.608,385.142 307.927,385.142 287.464,123.215 143.145,123.215 			"/>
			<path style="opacity:0.2;" d="M231.156,114.148c-0.099-1.271-1.21-2.301-2.48-2.301c-1.27,0-2.22,1.03-2.121,2.301
				c0.099,1.271,1.21,2.301,2.48,2.301C230.306,116.449,231.255,115.419,231.156,114.148z"/>
			<path style="opacity:0.2;" d="M220.728,111.848h-19.112c-1.265,0-2.22,1.035-2.121,2.301l0,0c0.099,1.265,1.215,2.301,2.48,2.301
				h19.113c1.265,0,2.22-1.035,2.121-2.301l0,0C223.109,112.883,221.993,111.848,220.728,111.848z"/>
		</g>
		<g>
			<g>
				
					<ellipse transform="matrix(0.6932 -0.7208 0.7208 0.6932 -177.6572 258.1115)" style="fill:#FFFFFF;" cx="214.346" cy="337.73" rx="12.903" ry="13.951"/>
				<path style="fill:#FFFFFF;" d="M264.857,358.99c0.579,7.41-4.959,13.417-12.368,13.417c-7.41,0-13.886-6.007-14.465-13.417
					c-0.579-7.41,4.959-13.417,12.368-13.417S264.278,351.58,264.857,358.99z"/>
				
					<ellipse transform="matrix(0.6932 -0.7208 0.7208 0.6932 -151.9738 275.9451)" style="fill:#FFFFFF;" cx="248.119" cy="316.47" rx="12.903" ry="13.951"/>
			</g>
			<path style="fill:#FFFFFF;" d="M251.556,360.49c-0.263,0-0.534-0.069-0.787-0.214l-37.094-21.26
				c-0.473-0.271-0.788-0.759-0.829-1.286c-0.041-0.527,0.197-1.015,0.628-1.286l33.772-21.26c0.677-0.426,1.617-0.196,2.098,0.514
				c0.482,0.71,0.323,1.632-0.354,2.058l-31.729,19.974l34.85,19.974c0.744,0.426,1.046,1.348,0.675,2.058
				C252.542,360.23,252.066,360.49,251.556,360.49z"/>
		</g>
		<g>
			<g>
				<polygon style="opacity:0.1;" points="300.441,289.322 165.002,289.322 153.883,146.988 289.322,146.988 				"/>
				<polygon style="fill:#FFFFFF;" points="315.178,280.815 172.845,280.815 161.725,138.481 304.059,138.481 				"/>
				<polygon style="fill:#407BFF;" points="307.711,273.888 179.23,273.888 169.192,145.407 297.674,145.407 				"/>
			</g>
			
				<ellipse transform="matrix(0.6932 -0.7208 0.7208 0.6932 -64.6681 206.3359)" style="opacity:0.8;fill:#FFFFFF;" cx="210.015" cy="179.123" rx="17.1" ry="18.489"/>
			<polygon style="opacity:0.2;" points="307.711,273.889 254.924,224.927 233.477,248.191 217.004,232.913 179.23,273.889 
				209.862,273.807 209.547,274.148 			"/>
		</g>
	</g>
</g>
<g id="Character_1_">
	<g>
		<path style="fill:#FFB573;" d="M378.5,177.31c0.446,1.029,0.776,1.868,1.112,2.799c0.329,0.908,0.646,1.814,0.945,2.721
			c0.608,1.811,1.137,3.639,1.631,5.469c0.984,3.663,1.788,7.355,2.445,11.066l0.241,1.392l0.061,0.348l0.067,0.431
			c0.042,0.386,0.112,0.792,0.104,1.163c0.042,1.529-0.281,2.872-0.702,4.036c-0.855,2.336-2.111,4.088-3.414,5.686
			c-2.662,3.157-5.618,5.576-8.94,7.725l-2.677-3.291c2.294-2.616,4.578-5.466,6.254-8.277c0.829-1.397,1.505-2.846,1.762-4.036
			c0.127-0.591,0.132-1.092,0.074-1.407l-0.539-2.097c-0.909-3.493-1.868-6.965-2.928-10.387c-0.514-1.716-1.079-3.411-1.629-5.099
			c-0.276-0.844-0.567-1.679-0.863-2.505l-0.874-2.362L378.5,177.31z"/>
		<path style="fill:#FFB573;" d="M372.983,218.848l2.578,5.548l-3.542,2.072c0,0-6.951-10.144-1.711-10.478L372.983,218.848z"/>
		<path style="fill:#407BFF;" d="M358.706,408.178c0.774,0,1.62-0.16,2.211-0.3c0.077-0.018,0.136-0.08,0.15-0.159
			c0.014-0.078-0.02-0.157-0.086-0.2c-0.287-0.189-2.83-1.83-3.805-1.389c-0.154,0.07-0.347,0.223-0.395,0.558
			c-0.063,0.444,0.048,0.798,0.329,1.054C357.467,408.068,358.062,408.178,358.706,408.178z M360.356,407.595
			c-1.458,0.291-2.555,0.241-2.979-0.146c-0.18-0.164-0.247-0.395-0.203-0.706c0.024-0.167,0.101-0.222,0.165-0.251
			C357.853,406.26,359.32,406.968,360.356,407.595z"/>
		<path style="fill:#407BFF;" d="M360.872,407.884c0.035,0,0.069-0.009,0.1-0.027c0.061-0.036,0.099-0.101,0.099-0.172
			c0-0.102-0.011-2.514-0.922-3.32c-0.242-0.214-0.524-0.303-0.84-0.265c-0.497,0.06-0.632,0.373-0.668,0.553
			c-0.189,0.944,1.334,2.751,2.133,3.204C360.805,407.875,360.838,407.884,360.872,407.884z M359.447,404.488
			c0.163,0,0.307,0.057,0.439,0.174c0.544,0.481,0.73,1.835,0.776,2.638c-0.796-0.636-1.746-1.994-1.631-2.569
			c0.019-0.094,0.073-0.206,0.327-0.237C359.388,404.49,359.418,404.488,359.447,404.488z"/>
		<path style="fill:#FFB573;" d="M360.136,148.067c-0.974,4.97-3.028,15.037,0.45,18.354c0,0-1.359,5.042-10.594,5.042
			c-10.155,0-4.853-5.041-4.853-5.041c5.543-1.324,5.4-5.436,4.434-9.298L360.136,148.067z"/>
		<path style="fill:#407BFF;" d="M344.562,168.046c-1.376,0.204-0.1-2.922,0.468-3.259c1.312-0.779,17.982-2.344,17.811-0.583
			c-0.095,0.758-0.556,2.247-1.301,2.771C360.794,167.499,356.575,166.116,344.562,168.046z"/>
		<path style="fill:#263238;" d="M339.961,137.413c-0.123,0-0.244-0.057-0.322-0.164c-1.038-1.433-2.499-1.379-2.513-1.378
			c-0.222,0.01-0.405-0.158-0.416-0.377c-0.011-0.219,0.158-0.405,0.377-0.416c0.077-0.004,1.908-0.073,3.195,1.705
			c0.129,0.178,0.089,0.426-0.089,0.554C340.123,137.389,340.041,137.413,339.961,137.413z"/>
		<path style="fill:#FF5652;" d="M337.738,142.184c0,0-1.031,2.951-2.237,4.403c0.924,0.797,2.424,0.357,2.424,0.357
			L337.738,142.184z"/>
		<path style="fill:#263238;" d="M338.297,141c0.027,0.675-0.31,1.236-0.751,1.254c-0.441,0.017-0.82-0.516-0.847-1.191
			c-0.027-0.675,0.31-1.236,0.751-1.254C337.891,139.792,338.271,140.325,338.297,141z"/>
		<path style="fill:#263238;" d="M337.647,139.839l-1.64-0.404C336.007,139.435,336.888,140.669,337.647,139.839z"/>
		<g>
			<polygon style="fill:#FFB573;" points="370.613,407.685 362.237,407.685 362.893,388.288 371.27,388.288 			"/>
			<polygon style="opacity:0.2;" points="371.272,388.293 362.892,388.293 362.557,398.292 370.937,398.292 			"/>
		</g>
		<path style="fill:#263238;" d="M361.573,406.716h9.41c0.342,0,0.62,0.238,0.669,0.572l1.072,7.445
			c0.111,0.772-0.553,1.503-1.343,1.49c-3.281-0.056-4.862-0.249-9-0.249c-2.546,0-6.266,0.264-9.781,0.264
			c-3.439,0-3.703-3.477-2.239-3.791c6.564-1.412,7.601-3.359,9.813-5.216C360.572,406.896,361.072,406.716,361.573,406.716z"/>
		<path style="fill:#FFB573;" d="M334.307,179.98c-1.658,4.182-3.45,8.162-5.461,12.137c-1.98,3.974-4.146,7.882-6.72,11.703
			c-0.669,0.952-1.332,1.897-2.09,2.837c-0.396,0.48-0.728,0.914-1.177,1.427c-0.531,0.588-1.119,1.125-1.749,1.606
			c-1.272,0.95-2.709,1.593-4.109,1.982c-1.405,0.395-2.787,0.535-4.103,0.535c-2.636,0.002-5.041-0.521-7.295-1.247
			c-1.129-0.361-2.218-0.793-3.277-1.279c-1.074-0.487-2.063-0.98-3.136-1.629l1.784-3.849c3.83,1.022,8.103,1.719,11.518,1.227
			c1.705-0.262,3.073-0.83,3.888-1.658c0.209-0.208,0.4-0.425,0.572-0.663l0.815-1.142c0.556-0.784,1.086-1.652,1.611-2.507
			c1.053-1.736,2.05-3.557,3.003-5.418c0.967-1.855,1.907-3.742,2.805-5.659c1.779-3.823,3.543-7.756,5.173-11.598L334.307,179.98z"
			/>
		<path style="fill:#263238;" d="M330.979,168.567c-4.163,1.015-9.286,12.445-9.286,12.445l9.911,12.695
			c0,0,10.236-14.483,8.868-18.909C339.046,170.189,336.029,167.335,330.979,168.567z"/>
		<path style="fill:#FFB573;" d="M298.878,204.802l-6.233-1.957l-1.365,6.523c0,0,6.105,1.192,8.508-1.473L298.878,204.802z"/>
		<polygon style="fill:#FFB573;" points="286.87,203.597 286.869,208.262 291.28,209.369 292.646,202.846 		"/>
		<path style="fill:#FFB573;" d="M360.905,137.792c-0.184,8.311-0.084,11.833-4.105,16.253c-6.048,6.649-16.216,4.605-18.519-3.593
			c-2.073-7.38-1.424-19.731,6.562-23.349C352.711,123.537,361.089,129.481,360.905,137.792z"/>
		<path style="fill:#263238;" d="M372.329,156.445c-2.585-3.395-2.117-7.116-1.621-11.056c0.56-4.442,1.186-9.442-2.627-14.633
			c-0.036-0.052-0.066-0.103-0.102-0.154c-9.51-13.464-27.705-7.077-29.102,0c-1.003,5.082,0.283,3.48,2.733,8.732
			c2.45,5.252-0.049,16.533-1.008,20.528c4.083,2.759,26.588,3.227,30.11-2.279c-2.117-3.331-1.71-6.662-0.997-10.162
			c-0.336,3.314-0.269,6.474,2.018,9.478c0.074,0.097,0.186,0.148,0.299,0.148c0.079,0,0.159-0.025,0.227-0.077
			C372.422,156.846,372.454,156.61,372.329,156.445z"/>
		<path style="fill:#FFB573;" d="M344.963,141.64c-0.108,1.615-0.924,3.154-1.904,4.172c-1.475,1.532-3.009,0.645-3.266-1.166
			c-0.232-1.63,0.256-4.39,2.057-5.262C343.624,138.527,345.086,139.794,344.963,141.64z"/>
		<path style="fill:#407BFF;" d="M343.966,219.122c0,0,4.861,57.491,9.905,89.892c4.074,26.17,7.286,87.342,7.286,87.342h11.423
			c0,0,5.443-59.077,3.375-84.961c-5.233-65.498,3.945-77.09-6.953-92.272H343.966z"/>
		<path style="opacity:0.2;" d="M356.764,250.146c-0.481,17.2-3.728,27.854-6.283,33.598c-1.34-11.22-2.57-22.93-3.6-33.26
			C350.392,238.783,357.132,237.202,356.764,250.146z"/>
		<path style="fill:#407BFF;" d="M377.599,374.272c0.004-0.069-0.028-0.136-0.087-0.176c-0.07-0.047-0.162-0.045-0.229,0.005
			c-0.341,0.253-3.332,2.512-3.277,3.681c0.011,0.226,0.124,0.411,0.327,0.533c0.34,0.205,0.685,0.239,1.026,0.1
			c1.129-0.46,1.884-2.768,2.234-4.104C377.596,374.298,377.599,374.285,377.599,374.272z M374.403,377.716
			c0.039-0.656,1.484-2.012,2.648-2.936c-0.534,1.804-1.208,3.009-1.841,3.267c-0.221,0.09-0.441,0.066-0.671-0.072
			c-0.09-0.054-0.131-0.119-0.136-0.212C374.402,377.748,374.402,377.732,374.403,377.716z"/>
		<path style="fill:#407BFF;" d="M377.599,374.272c0.001-0.014,0-0.029-0.002-0.043c-0.011-0.069-0.058-0.128-0.124-0.153
			c-0.089-0.035-2.202-0.846-3.451-0.282c-0.382,0.173-0.648,0.455-0.788,0.839c-0.19,0.518-0.008,0.784,0.178,0.915
			c0.786,0.554,3.274-0.433,4.116-1.134C377.571,374.378,377.596,374.326,377.599,374.272z M373.552,375.002
			c0.004-0.06,0.019-0.136,0.055-0.233c0.104-0.284,0.293-0.485,0.579-0.613c0.821-0.37,2.158-0.03,2.79,0.169
			c-0.999,0.646-2.863,1.231-3.335,0.898C373.613,375.203,373.543,375.154,373.552,375.002z"/>
		<g>
			<polygon style="fill:#FFB573;" points="383.06,366.81 378.3,373.71 371.68,369.43 363.02,363.82 362.01,363.17 366.76,356.27 
				367.9,357 376.29,362.43 			"/>
			<polygon style="opacity:0.2;" points="376.29,362.43 371.68,369.43 363.02,363.82 367.9,357 			"/>
		</g>
		<path style="fill:#407BFF;" d="M334.982,219.122c0,0-12.533,57.14-12.528,86.545c0.004,26.575,45,63.167,45,63.167l6.328-9.565
			c0,0-30.784-42.082-28.994-50.602c5.19-24.717,13.839-78,13.741-89.545L334.982,219.122z"/>
		<path style="fill:#263238;" d="M376.768,373.345l4.112-8.465c0.15-0.308,0.485-0.454,0.807-0.351l7.166,2.289
			c0.743,0.237,1.11,1.154,0.753,1.859c-1.484,2.926-2.348,4.264-4.157,7.987c-1.113,2.29-3.176,7.142-4.712,10.305
			c-1.503,3.093-4.745,1.812-4.389,0.357c1.599-6.521,0.976-9.696,0.272-12.497C376.492,374.324,376.549,373.795,376.768,373.345z"
			/>
		<polygon style="fill:#263238;" points="367.961,371.043 376.423,359.208 372.266,355.378 363.196,368.035 		"/>
		<polygon style="fill:#263238;" points="359.594,396.582 374.142,396.582 374.906,391.478 359.511,390.957 		"/>
		<path style="fill:#263238;" d="M382.231,181.607l-8.41,6.7l-5.05,4.03c0,0-0.53-1.41-1.17-3.43c-1.22-3.9-2.81-10.08-1.71-12.92
			c1.73-4.5,5.03-8.56,9.14-7.66C378.511,169.087,382.231,181.607,382.231,181.607z"/>
		<path style="opacity:0.2;" d="M373.821,188.307l-5.05,4.03c0,0-0.53-1.41-1.17-3.43l3-14.85L373.821,188.307z"/>
		<path style="fill:#263238;" d="M330.979,168.567c0,0-3.99,1.405,4.003,50.555c13.499,0,27.451,0,34.019,0
			c-0.571-13.846-0.587-22.383,6.03-50.798c0,0-7.128-1.551-14.446-1.903c-5.725-0.276-10.415-0.459-15.448,0.001
			C338.503,167.027,330.979,168.567,330.979,168.567z"/>
		<g>
			<path style="fill:#407BFF;" d="M369.51,217.125l1.534,3.045c0.119,0.236-0.161,0.477-0.554,0.477h-35.677
				c-0.307,0-0.561-0.15-0.58-0.343l-0.307-3.045c-0.021-0.211,0.245-0.39,0.58-0.39h34.449
				C369.21,216.87,369.434,216.973,369.51,217.125z"/>
			<path style="opacity:0.2;" d="M369.51,217.125l1.534,3.045c0.119,0.236-0.161,0.477-0.554,0.477h-35.677
				c-0.307,0-0.561-0.15-0.58-0.343l-0.307-3.045c-0.021-0.211,0.245-0.39,0.58-0.39h34.449
				C369.21,216.87,369.434,216.973,369.51,217.125z"/>
		</g>
		<path style="fill:#407BFF;" d="M364.884,220.977h0.923c0.184,0,0.324-0.095,0.311-0.21l-0.433-3.956
			c-0.013-0.116-0.173-0.21-0.357-0.21h-0.923c-0.184,0-0.324,0.095-0.311,0.21l0.433,3.956
			C364.539,220.883,364.7,220.977,364.884,220.977z"/>
		<path style="fill:#407BFF;" d="M342.52,220.977h0.923c0.184,0,0.324-0.095,0.311-0.21l-0.433-3.956
			c-0.013-0.116-0.173-0.21-0.357-0.21h-0.923c-0.184,0-0.324,0.095-0.311,0.21l0.433,3.956
			C342.175,220.883,342.336,220.977,342.52,220.977z"/>
	</g>
</g>
</svg>
